#tb 0: 1/25
0,          0,          0,        1,   196608, 0x326953c4
0,          1,          1,        1,   196608, 0x870e1dcc
0,          2,          2,        1,   196608, 0x87cb8800
